M48
INCH
T1C0.0118
%
G90
G05
T1
X0.231Y-0.3987
X0.231Y-0.9893
X0.231Y-1.5798
X0.2783Y-0.2913
X0.2783Y-0.8819
X0.2783Y-1.4725
X0.3026Y-0.4635
X0.3026Y-1.0541
X0.3026Y-1.6446
X0.3254Y-0.2472
X0.3254Y-0.8377
X0.3254Y-1.4283
X0.3792Y-0.2586
X0.3792Y-0.8492
X0.3792Y-1.4398
X0.3857Y-0.4464
X0.3857Y-1.037
X0.3857Y-1.6275
X0.4137Y-0.2933
X0.4137Y-0.8838
X0.4137Y-1.4744
X0.4378Y-0.4108
X0.4378Y-1.0014
X0.4378Y-1.5919
X0.4679Y-0.312
X0.4679Y-0.9025
X0.4679Y-1.4931
X0.8313Y-0.3967
X0.8313Y-0.9872
X0.8313Y-1.5778
X0.8613Y-0.2978
X0.8613Y-0.8884
X0.8613Y-1.4789
X0.8854Y-0.4153
X0.8854Y-1.0059
X0.8854Y-1.5964
X0.9134Y-0.2622
X0.9134Y-0.8527
X0.9134Y-1.4433
X0.9199Y-0.45
X0.9199Y-1.0405
X0.9199Y-1.6311
X0.9737Y-0.4615
X0.9737Y-1.052
X0.9737Y-1.6426
X0.9965Y-0.2451
X0.9965Y-0.8356
X0.9965Y-1.4262
X1.0208Y-0.4173
X1.0208Y-1.0078
X1.0208Y-1.5984
X1.0681Y-0.3099
X1.0681Y-0.9005
X1.0681Y-1.491
X1.4121Y-0.3987
X1.4121Y-0.9893
X1.4121Y-1.5798
X1.4594Y-0.2913
X1.4594Y-0.8819
X1.4594Y-1.4725
X1.4837Y-0.4635
X1.4837Y-1.0541
X1.4837Y-1.6446
X1.5065Y-0.2472
X1.5065Y-0.8377
X1.5065Y-1.4283
X1.5603Y-0.2586
X1.5603Y-0.8492
X1.5603Y-1.4398
X1.5668Y-0.4464
X1.5668Y-1.037
X1.5668Y-1.6275
X1.5948Y-0.2933
X1.5948Y-0.8838
X1.5948Y-1.4744
X1.6189Y-0.4108
X1.6189Y-1.0014
X1.6189Y-1.5919
X1.649Y-0.312
X1.649Y-0.9025
X1.649Y-1.4931
M30
