M48
INCH
T1C0.0197
%
G90
G05
T1
X0.1873Y-0.4003
X0.1873Y-0.9908
X0.1873Y-1.5814
X0.1987Y-1.0209
X0.1987Y-0.4304
X0.1987Y-1.6115
X0.2088Y-0.2941
X0.2088Y-0.8846
X0.2088Y-1.4752
X0.2154Y-0.4578
X0.2154Y-1.0483
X0.2154Y-1.6389
X0.2369Y-0.4817
X0.2369Y-1.0722
X0.2369Y-1.6628
X0.294Y-0.4998
X0.294Y-1.0904
X0.294Y-1.6809
X0.3059Y-0.1881
X0.3059Y-1.3692
X0.3059Y-0.7786
X0.3376Y-0.7725
X0.3376Y-1.3631
X0.3376Y-0.182
X0.3698Y-1.3629
X0.3698Y-0.1818
X0.3698Y-0.7724
X0.4016Y-0.1877
X0.4016Y-1.3688
X0.4016Y-0.7783
X0.4398Y-0.5049
X0.4398Y-1.0954
X0.4398Y-1.686
X0.4662Y-1.077
X0.4662Y-1.6676
X0.4662Y-0.4865
X0.4887Y-0.4635
X0.4887Y-1.0541
X0.4887Y-1.6446
X0.4998Y-0.2941
X0.4998Y-0.8846
X0.4998Y-1.4752
X0.5066Y-1.0274
X0.5066Y-1.6179
X0.5066Y-0.4368
X0.7929Y-1.4523
X0.7929Y-0.2712
X0.7929Y-0.8617
X0.7993Y-0.4146
X0.7993Y-1.0051
X0.7993Y-1.5957
X0.811Y-1.4255
X0.811Y-0.2444
X0.811Y-0.835
X0.8337Y-0.812
X0.8337Y-1.4026
X0.8337Y-0.2215
X0.8603Y-0.2031
X0.8603Y-1.3842
X0.8603Y-0.7937
X0.8987Y-1.1118
X0.8987Y-0.5212
X0.8987Y-1.7023
X0.9303Y-0.5269
X0.9303Y-1.1174
X0.9303Y-1.708
X0.9624Y-1.7077
X0.9624Y-0.5266
X0.9624Y-1.1172
X0.994Y-1.7015
X0.994Y-0.5204
X0.994Y-1.111
X1.0051Y-0.2088
X1.0051Y-0.7994
X1.0051Y-1.3899
X1.0613Y-0.8167
X1.0613Y-1.4073
X1.0613Y-0.2261
X1.0831Y-0.25
X1.0831Y-0.8405
X1.0831Y-1.4311
X1.0903Y-0.4146
X1.0903Y-1.0051
X1.0903Y-1.5957
X1.1Y-0.2775
X1.1Y-0.868
X1.1Y-1.4586
X1.1116Y-0.3076
X1.1116Y-0.8982
X1.1116Y-1.4888
X1.3684Y-1.5814
X1.3684Y-0.4003
X1.3684Y-0.9908
X1.3798Y-1.0209
X1.3798Y-1.6115
X1.3798Y-0.4303
X1.3899Y-0.2941
X1.3899Y-0.8846
X1.3899Y-1.4752
X1.3965Y-0.4578
X1.3965Y-1.0483
X1.3965Y-1.6389
X1.418Y-0.4817
X1.418Y-1.0722
X1.418Y-1.6628
X1.4751Y-0.4998
X1.4751Y-1.0904
X1.4751Y-1.6809
X1.487Y-0.1881
X1.487Y-1.3692
X1.487Y-0.7786
X1.5187Y-0.7725
X1.5187Y-1.3631
X1.5187Y-0.182
X1.5509Y-0.1818
X1.5509Y-0.7724
X1.5509Y-1.3629
X1.5827Y-0.1877
X1.5827Y-1.3688
X1.5827Y-0.7783
X1.6209Y-0.5049
X1.6209Y-1.0954
X1.6209Y-1.686
X1.6473Y-1.077
X1.6473Y-1.6676
X1.6473Y-0.4865
X1.6698Y-0.4635
X1.6698Y-1.0541
X1.6698Y-1.6446
X1.6809Y-0.2941
X1.6809Y-0.8846
X1.6809Y-1.4752
X1.6877Y-0.4368
X1.6877Y-1.0274
X1.6877Y-1.6179
M30
