%TF.GenerationSoftware,KiCad,Pcbnew,8.0.5-dirty*%
%TF.CreationDate,2025-01-28T00:49:07-05:00*%
%TF.ProjectId,prrpls406-panel,70727270-6c73-4343-9036-2d70616e656c,rev?*%
%TF.SameCoordinates,Original*%
%TF.FileFunction,Soldermask,Bot*%
%TF.FilePolarity,Negative*%
%FSLAX46Y46*%
G04 Gerber Fmt 4.6, Leading zero omitted, Abs format (unit mm)*
G04 Created by KiCad (PCBNEW 8.0.5-dirty) date 2025-01-28 00:49:07*
%MOMM*%
%LPD*%
G01*
G04 APERTURE LIST*
G04 Aperture macros list*
%AMRoundRect*
0 Rectangle with rounded corners*
0 $1 Rounding radius*
0 $2 $3 $4 $5 $6 $7 $8 $9 X,Y pos of 4 corners*
0 Add a 4 corners polygon primitive as box body*
4,1,4,$2,$3,$4,$5,$6,$7,$8,$9,$2,$3,0*
0 Add four circle primitives for the rounded corners*
1,1,$1+$1,$2,$3*
1,1,$1+$1,$4,$5*
1,1,$1+$1,$6,$7*
1,1,$1+$1,$8,$9*
0 Add four rect primitives between the rounded corners*
20,1,$1+$1,$2,$3,$4,$5,0*
20,1,$1+$1,$4,$5,$6,$7,0*
20,1,$1+$1,$6,$7,$8,$9,0*
20,1,$1+$1,$8,$9,$2,$3,0*%
G04 Aperture macros list end*
%ADD10C,0.500000*%
%ADD11RoundRect,0.042500X0.307500X-0.042500X0.307500X0.042500X-0.307500X0.042500X-0.307500X-0.042500X0*%
%ADD12RoundRect,0.042500X0.042500X0.307500X-0.042500X0.307500X-0.042500X-0.307500X0.042500X-0.307500X0*%
%ADD13RoundRect,0.170000X0.680000X0.680000X-0.680000X0.680000X-0.680000X-0.680000X0.680000X-0.680000X0*%
%ADD14RoundRect,0.135000X0.185000X-0.135000X0.185000X0.135000X-0.185000X0.135000X-0.185000X-0.135000X0*%
%ADD15RoundRect,0.135000X-0.226274X-0.035355X-0.035355X-0.226274X0.226274X0.035355X0.035355X0.226274X0*%
%ADD16RoundRect,0.135000X0.135000X0.185000X-0.135000X0.185000X-0.135000X-0.185000X0.135000X-0.185000X0*%
%ADD17RoundRect,0.135000X0.035355X-0.226274X0.226274X-0.035355X-0.035355X0.226274X-0.226274X0.035355X0*%
%ADD18RoundRect,0.135000X0.226274X0.035355X0.035355X0.226274X-0.226274X-0.035355X-0.035355X-0.226274X0*%
%ADD19RoundRect,0.135000X-0.035355X0.226274X-0.226274X0.035355X0.035355X-0.226274X0.226274X-0.035355X0*%
%ADD20RoundRect,0.135000X-0.135000X-0.185000X0.135000X-0.185000X0.135000X0.185000X-0.135000X0.185000X0*%
%ADD21RoundRect,0.042500X-0.307500X0.042500X-0.307500X-0.042500X0.307500X-0.042500X0.307500X0.042500X0*%
%ADD22RoundRect,0.042500X-0.042500X-0.307500X0.042500X-0.307500X0.042500X0.307500X-0.042500X0.307500X0*%
%ADD23RoundRect,0.170000X-0.680000X-0.680000X0.680000X-0.680000X0.680000X0.680000X-0.680000X0.680000X0*%
%ADD24RoundRect,0.135000X-0.185000X0.135000X-0.185000X-0.135000X0.185000X-0.135000X0.185000X0.135000X0*%
G04 APERTURE END LIST*
D10*
%TO.C,H2*%
X25529510Y-20304175D03*
%TD*%
%TO.C,H2*%
X7468042Y-27695213D03*
%TD*%
%TO.C,KiKit_MB_6_5*%
X22826131Y-13239695D03*
%TD*%
%TO.C,KiKit_MB_12_5*%
X10200244Y-19767586D03*
%TD*%
%TO.C,KiKit_MB_1_2*%
X6017721Y-12234933D03*
%TD*%
%TO.C,H2*%
X7468042Y-12695213D03*
%TD*%
%TO.C,KiKit_MB_7_2*%
X36017720Y-12234933D03*
%TD*%
%TO.C,H3*%
X42694294Y-37468961D03*
%TD*%
%TO.C,KiKit_MB_3_4*%
X9393976Y-4617698D03*
%TD*%
%TO.C,KiKit_MB_14_2*%
X20140446Y-21888078D03*
%TD*%
%TO.C,KiKit_MB_1_3*%
X5471749Y-11627860D03*
%TD*%
%TO.C,KiKit_MB_7_4*%
X35046706Y-10930827D03*
%TD*%
%TO.C,KiKit_MB_13_5*%
X28234580Y-22814292D03*
%TD*%
%TO.C,H1*%
X27694295Y-10530427D03*
%TD*%
%TO.C,H2*%
X25529510Y-5304175D03*
%TD*%
%TO.C,KiKit_MB_15_4*%
X23629678Y-28382723D03*
%TD*%
%TO.C,KiKit_MB_8_3*%
X42412624Y-11773808D03*
%TD*%
%TO.C,KiKit_MB_20_3*%
X12412911Y-41774035D03*
%TD*%
%TO.C,KiKit_MB_16_3*%
X35471940Y-26627717D03*
%TD*%
%TO.C,KiKit_MB_13_4*%
X27940956Y-22048369D03*
%TD*%
%TO.C,KiKit_MB_24_3*%
X24445790Y-43375769D03*
%TD*%
%TO.C,KiKit_MB_11_4*%
X11840871Y-27356409D03*
%TD*%
%TO.C,KiKit_MB_20_4*%
X11840871Y-42356409D03*
%TD*%
%TO.C,KiKit_MB_22_5*%
X28234580Y-37814292D03*
%TD*%
%TO.C,H3*%
X20303258Y-25530427D03*
%TD*%
%TO.C,KiKit_MB_19_2*%
X6017771Y-42234876D03*
%TD*%
%TO.C,H2*%
X25529510Y-35304175D03*
%TD*%
%TO.C,KiKit_MB_4_5*%
X28234580Y-7814293D03*
%TD*%
%TO.C,KiKit_MB_24_5*%
X22826211Y-43239416D03*
%TD*%
%TO.C,KiKit_MB_14_3*%
X20599349Y-21208753D03*
%TD*%
%TO.C,KiKit_MB_27_2*%
X37768859Y-34776601D03*
%TD*%
%TO.C,KiKit_MB_2_2*%
X12867290Y-11095677D03*
%TD*%
%TO.C,KiKit_MB_10_4*%
X5046424Y-25930962D03*
%TD*%
%TO.C,KiKit_MB_2_4*%
X11841028Y-12356594D03*
%TD*%
%TO.C,H2*%
X7468042Y-42695213D03*
%TD*%
%TO.C,KiKit_MB_17_3*%
X42412624Y-26773808D03*
%TD*%
%TO.C,H3*%
X42694294Y-22468961D03*
%TD*%
%TO.C,KiKit_MB_9_5*%
X40200133Y-4768007D03*
%TD*%
%TO.C,KiKit_MB_23_5*%
X21850676Y-35159898D03*
%TD*%
%TO.C,H3*%
X12694294Y-7468961D03*
%TD*%
%TO.C,KiKit_MB_2_3*%
X12412911Y-11774035D03*
%TD*%
%TO.C,KiKit_MB_26_4*%
X41840871Y-42356409D03*
%TD*%
%TO.C,H1*%
X27694295Y-25530427D03*
%TD*%
%TO.C,KiKit_MB_23_3*%
X20599183Y-36208616D03*
%TD*%
%TO.C,H1*%
X5303257Y-37468961D03*
%TD*%
%TO.C,KiKit_MB_13_2*%
X26957253Y-20744265D03*
%TD*%
%TO.C,KiKit_MB_26_3*%
X42412624Y-41773808D03*
%TD*%
%TO.C,KiKit_MB_5_2*%
X20140446Y-6888079D03*
%TD*%
%TO.C,KiKit_MB_16_5*%
X34757286Y-25167363D03*
%TD*%
%TO.C,KiKit_MB_25_5*%
X34756823Y-40167480D03*
%TD*%
%TO.C,KiKit_MB_22_4*%
X27940956Y-37048369D03*
%TD*%
%TO.C,KiKit_MB_11_3*%
X12412911Y-26774035D03*
%TD*%
%TO.C,KiKit_MB_4_4*%
X27940956Y-7048370D03*
%TD*%
%TO.C,H3*%
X20303258Y-10530427D03*
%TD*%
%TO.C,KiKit_MB_18_4*%
X39393976Y-19617697D03*
%TD*%
%TO.C,KiKit_MB_26_2*%
X42866953Y-41095481D03*
%TD*%
%TO.C,KiKit_MB_24_2*%
X25246677Y-43218307D03*
%TD*%
%TO.C,KiKit_MB_14_5*%
X21850921Y-20160314D03*
%TD*%
%TO.C,KiKit_MB_20_2*%
X12866953Y-41095481D03*
%TD*%
%TO.C,H2*%
X37468042Y-12695213D03*
%TD*%
%TO.C,KiKit_MB_25_3*%
X35471940Y-41627717D03*
%TD*%
%TO.C,KiKit_MB_17_2*%
X42866953Y-26095481D03*
%TD*%
%TO.C,H2*%
X37468042Y-42695213D03*
%TD*%
%TO.C,KiKit_MB_8_2*%
X42866953Y-11095481D03*
%TD*%
%TO.C,KiKit_MB_10_2*%
X6017771Y-27234876D03*
%TD*%
%TO.C,KiKit_MB_22_2*%
X26957253Y-35744265D03*
%TD*%
%TO.C,H1*%
X5303257Y-7468961D03*
%TD*%
%TO.C,KiKit_MB_19_5*%
X4757287Y-40167363D03*
%TD*%
%TO.C,KiKit_MB_15_5*%
X22826109Y-28239769D03*
%TD*%
%TO.C,KiKit_MB_23_4*%
X21175721Y-35625629D03*
%TD*%
%TO.C,KiKit_MB_9_3*%
X38573975Y-4621742D03*
%TD*%
%TO.C,KiKit_MB_11_2*%
X12866953Y-26095481D03*
%TD*%
%TO.C,KiKit_MB_26_5*%
X41171862Y-42824079D03*
%TD*%
%TO.C,KiKit_MB_6_2*%
X25246823Y-13218765D03*
%TD*%
%TO.C,KiKit_MB_25_2*%
X36017720Y-42234933D03*
%TD*%
%TO.C,KiKit_MB_5_4*%
X21175926Y-5625883D03*
%TD*%
%TO.C,KiKit_MB_20_5*%
X11171862Y-42824079D03*
%TD*%
%TO.C,H2*%
X37468042Y-27695213D03*
%TD*%
%TO.C,KiKit_MB_24_4*%
X23629678Y-43382723D03*
%TD*%
%TO.C,KiKit_MB_9_4*%
X39393976Y-4617698D03*
%TD*%
%TO.C,KiKit_MB_7_3*%
X35471748Y-11627860D03*
%TD*%
%TO.C,KiKit_MB_21_3*%
X8573961Y-34621576D03*
%TD*%
%TO.C,KiKit_MB_15_2*%
X25246823Y-28218765D03*
%TD*%
%TO.C,KiKit_MB_11_5*%
X11171862Y-27824079D03*
%TD*%
%TO.C,H3*%
X42694294Y-7468961D03*
%TD*%
%TO.C,KiKit_MB_9_2*%
X37768859Y-4776602D03*
%TD*%
%TO.C,H1*%
X35303257Y-37468961D03*
%TD*%
%TO.C,KiKit_MB_18_5*%
X40200244Y-19767586D03*
%TD*%
%TO.C,KiKit_MB_25_4*%
X35046541Y-40930906D03*
%TD*%
%TO.C,KiKit_MB_4_3*%
X27510965Y-6349671D03*
%TD*%
%TO.C,KiKit_MB_16_4*%
X35046541Y-25930906D03*
%TD*%
%TO.C,KiKit_MB_2_5*%
X11171862Y-12824079D03*
%TD*%
%TO.C,KiKit_MB_23_2*%
X20140264Y-36887979D03*
%TD*%
%TO.C,H1*%
X35303257Y-22468961D03*
%TD*%
%TO.C,KiKit_MB_19_3*%
X5471749Y-41627860D03*
%TD*%
%TO.C,KiKit_MB_27_5*%
X40200133Y-34768006D03*
%TD*%
%TO.C,KiKit_MB_17_4*%
X41840871Y-27356409D03*
%TD*%
%TO.C,KiKit_MB_1_5*%
X4757287Y-10167363D03*
%TD*%
%TO.C,KiKit_MB_6_3*%
X24445805Y-13375896D03*
%TD*%
%TO.C,KiKit_MB_7_5*%
X34757286Y-10167363D03*
%TD*%
%TO.C,KiKit_MB_3_2*%
X7768860Y-4776602D03*
%TD*%
%TO.C,KiKit_MB_6_4*%
X23629678Y-13382723D03*
%TD*%
%TO.C,KiKit_MB_3_5*%
X10200133Y-4768007D03*
%TD*%
%TO.C,KiKit_MB_21_4*%
X9393975Y-34617708D03*
%TD*%
%TO.C,KiKit_MB_12_4*%
X9393976Y-19617697D03*
%TD*%
%TO.C,KiKit_MB_8_5*%
X41171778Y-12823929D03*
%TD*%
%TO.C,KiKit_MB_13_3*%
X27510965Y-21349670D03*
%TD*%
%TO.C,KiKit_MB_10_3*%
X5471749Y-26627860D03*
%TD*%
%TO.C,KiKit_MB_27_3*%
X38573960Y-34621576D03*
%TD*%
%TO.C,H1*%
X35303257Y-7468961D03*
%TD*%
%TO.C,KiKit_MB_4_2*%
X26957550Y-5743950D03*
%TD*%
%TO.C,KiKit_MB_18_2*%
X37768931Y-19776847D03*
%TD*%
%TO.C,KiKit_MB_21_5*%
X10200133Y-34768006D03*
%TD*%
%TO.C,KiKit_MB_1_4*%
X5046542Y-10930906D03*
%TD*%
%TO.C,KiKit_MB_8_4*%
X41841028Y-12356594D03*
%TD*%
%TO.C,KiKit_MB_27_4*%
X39393976Y-34617697D03*
%TD*%
%TO.C,H3*%
X12694294Y-37468961D03*
%TD*%
%TO.C,KiKit_MB_12_3*%
X8573961Y-19621576D03*
%TD*%
%TO.C,KiKit_MB_16_2*%
X36017720Y-27234933D03*
%TD*%
%TO.C,H1*%
X27694295Y-40530427D03*
%TD*%
%TO.C,KiKit_MB_10_5*%
X4757287Y-25167363D03*
%TD*%
%TO.C,KiKit_MB_22_3*%
X27510965Y-36349670D03*
%TD*%
%TO.C,KiKit_MB_17_5*%
X41171862Y-27824079D03*
%TD*%
%TO.C,H1*%
X5303257Y-22468961D03*
%TD*%
%TO.C,KiKit_MB_5_3*%
X20599349Y-6208754D03*
%TD*%
%TO.C,KiKit_MB_3_3*%
X8573976Y-4621742D03*
%TD*%
%TO.C,KiKit_MB_21_2*%
X7768860Y-34776601D03*
%TD*%
%TO.C,KiKit_MB_12_2*%
X7768932Y-19776847D03*
%TD*%
%TO.C,H3*%
X12694294Y-22468961D03*
%TD*%
%TO.C,KiKit_MB_5_5*%
X21850676Y-5159899D03*
%TD*%
%TO.C,KiKit_MB_18_3*%
X38573960Y-19621576D03*
%TD*%
%TO.C,KiKit_MB_14_4*%
X21175684Y-20625583D03*
%TD*%
%TO.C,KiKit_MB_19_4*%
X5046542Y-40930906D03*
%TD*%
%TO.C,H3*%
X20303258Y-40530427D03*
%TD*%
%TO.C,KiKit_MB_15_3*%
X24445805Y-28375896D03*
%TD*%
D11*
%TO.C,U1*%
X25438776Y-38199694D03*
X25448776Y-38599694D03*
X25448776Y-38999694D03*
X25448776Y-39399694D03*
X25448776Y-39799694D03*
D12*
X24798776Y-40449694D03*
X24398776Y-40449694D03*
X23998776Y-40449694D03*
X23598776Y-40449694D03*
X23198776Y-40459693D03*
D11*
X22548776Y-39799694D03*
X22548776Y-39399694D03*
X22548776Y-38999694D03*
X22548776Y-38599694D03*
X22538777Y-38199694D03*
D12*
X23198776Y-37559694D03*
X23598776Y-37549694D03*
X23998776Y-37549694D03*
X24398776Y-37549694D03*
X24798776Y-37549694D03*
D13*
X23998776Y-38999694D03*
%TD*%
D14*
%TO.C,R7*%
X12298776Y-9509694D03*
X12298776Y-8489694D03*
%TD*%
D15*
%TO.C,C1*%
X36304699Y-10972523D03*
X37025947Y-11693771D03*
%TD*%
D14*
%TO.C,R7*%
X42298776Y-24509694D03*
X42298776Y-23489694D03*
%TD*%
D10*
%TO.C,TP3*%
X41398776Y-38999694D03*
%TD*%
%TO.C,TP4*%
X8998776Y-41399694D03*
%TD*%
D16*
%TO.C,R1*%
X39508776Y-5699694D03*
X38488776Y-5699694D03*
%TD*%
%TO.C,R1*%
X39508776Y-35699694D03*
X38488776Y-35699694D03*
%TD*%
D17*
%TO.C,R6*%
X10971604Y-26693771D03*
X11692852Y-25972523D03*
%TD*%
D18*
%TO.C,R4*%
X41692852Y-7026866D03*
X40971604Y-6305618D03*
%TD*%
D17*
%TO.C,R6*%
X40971604Y-41693771D03*
X41692852Y-40972523D03*
%TD*%
D10*
%TO.C,TP2*%
X36598776Y-23999694D03*
%TD*%
D18*
%TO.C,R4*%
X11692852Y-7026866D03*
X10971604Y-6305618D03*
%TD*%
D10*
%TO.C,TP3*%
X11398776Y-8999694D03*
%TD*%
D19*
%TO.C,R6*%
X22025948Y-36305617D03*
X21304700Y-37026865D03*
%TD*%
D20*
%TO.C,R5*%
X8488776Y-27299694D03*
X9508776Y-27299694D03*
%TD*%
D10*
%TO.C,TP3*%
X11398776Y-38999694D03*
%TD*%
D15*
%TO.C,R4*%
X21304700Y-10972522D03*
X22025948Y-11693770D03*
%TD*%
D20*
%TO.C,R5*%
X38488776Y-27299694D03*
X39508776Y-27299694D03*
%TD*%
D18*
%TO.C,C1*%
X26692853Y-37026865D03*
X25971605Y-36305617D03*
%TD*%
D14*
%TO.C,R7*%
X12298776Y-24509694D03*
X12298776Y-23489694D03*
%TD*%
D10*
%TO.C,TP1*%
X8998776Y-36599694D03*
%TD*%
%TO.C,TP2*%
X26398776Y-23999694D03*
%TD*%
D16*
%TO.C,R5*%
X24508776Y-35699694D03*
X23488776Y-35699694D03*
%TD*%
D15*
%TO.C,C1*%
X6304699Y-10972523D03*
X7025947Y-11693771D03*
%TD*%
D18*
%TO.C,C1*%
X26692853Y-22026865D03*
X25971605Y-21305617D03*
%TD*%
D10*
%TO.C,TP4*%
X38998776Y-26399694D03*
%TD*%
D14*
%TO.C,R3*%
X27298776Y-9509694D03*
X27298776Y-8489694D03*
%TD*%
D21*
%TO.C,U1*%
X7558776Y-24799694D03*
X7548776Y-24399694D03*
X7548776Y-23999694D03*
X7548776Y-23599694D03*
X7548776Y-23199694D03*
D22*
X8198776Y-22549694D03*
X8598776Y-22549694D03*
X8998776Y-22549694D03*
X9398776Y-22549694D03*
X9798776Y-22539695D03*
D21*
X10448776Y-23199694D03*
X10448776Y-23599694D03*
X10448776Y-23999694D03*
X10448776Y-24399694D03*
X10458775Y-24799694D03*
D22*
X9798776Y-25439694D03*
X9398776Y-25449694D03*
X8998776Y-25449694D03*
X8598776Y-25449694D03*
X8198776Y-25449694D03*
D23*
X8998776Y-23999694D03*
%TD*%
D18*
%TO.C,R4*%
X41692852Y-37026866D03*
X40971604Y-36305618D03*
%TD*%
D16*
%TO.C,R5*%
X24508776Y-20699694D03*
X23488776Y-20699694D03*
%TD*%
D19*
%TO.C,R6*%
X22025948Y-6305617D03*
X21304700Y-7026865D03*
%TD*%
D20*
%TO.C,R1*%
X23488776Y-42299694D03*
X24508776Y-42299694D03*
%TD*%
D10*
%TO.C,TP1*%
X23998776Y-26399694D03*
%TD*%
D14*
%TO.C,R7*%
X42298776Y-9509694D03*
X42298776Y-8489694D03*
%TD*%
D24*
%TO.C,R3*%
X35698776Y-38489694D03*
X35698776Y-39509694D03*
%TD*%
D10*
%TO.C,TP4*%
X23998776Y-6599694D03*
%TD*%
%TO.C,TP2*%
X36598776Y-8999694D03*
%TD*%
D19*
%TO.C,R2*%
X7025947Y-6305618D03*
X6304699Y-7026866D03*
%TD*%
D15*
%TO.C,C1*%
X6304699Y-25972523D03*
X7025947Y-26693771D03*
%TD*%
D21*
%TO.C,U1*%
X37558776Y-24799694D03*
X37548776Y-24399694D03*
X37548776Y-23999694D03*
X37548776Y-23599694D03*
X37548776Y-23199694D03*
D22*
X38198776Y-22549694D03*
X38598776Y-22549694D03*
X38998776Y-22549694D03*
X39398776Y-22549694D03*
X39798776Y-22539695D03*
D21*
X40448776Y-23199694D03*
X40448776Y-23599694D03*
X40448776Y-23999694D03*
X40448776Y-24399694D03*
X40458775Y-24799694D03*
D22*
X39798776Y-25439694D03*
X39398776Y-25449694D03*
X38998776Y-25449694D03*
X38598776Y-25449694D03*
X38198776Y-25449694D03*
D23*
X38998776Y-23999694D03*
%TD*%
D21*
%TO.C,U1*%
X7558776Y-9799694D03*
X7548776Y-9399694D03*
X7548776Y-8999694D03*
X7548776Y-8599694D03*
X7548776Y-8199694D03*
D22*
X8198776Y-7549694D03*
X8598776Y-7549694D03*
X8998776Y-7549694D03*
X9398776Y-7549694D03*
X9798776Y-7539695D03*
D21*
X10448776Y-8199694D03*
X10448776Y-8599694D03*
X10448776Y-8999694D03*
X10448776Y-9399694D03*
X10458775Y-9799694D03*
D22*
X9798776Y-10439694D03*
X9398776Y-10449694D03*
X8998776Y-10449694D03*
X8598776Y-10449694D03*
X8198776Y-10449694D03*
D23*
X8998776Y-8999694D03*
%TD*%
D10*
%TO.C,TP1*%
X8998776Y-21599694D03*
%TD*%
%TO.C,TP1*%
X23998776Y-41399694D03*
%TD*%
D14*
%TO.C,R3*%
X27298776Y-24509694D03*
X27298776Y-23489694D03*
%TD*%
D18*
%TO.C,C1*%
X26692853Y-7026865D03*
X25971605Y-6305617D03*
%TD*%
D14*
%TO.C,R7*%
X12298776Y-39509694D03*
X12298776Y-38489694D03*
%TD*%
D17*
%TO.C,R6*%
X10971604Y-11693771D03*
X11692852Y-10972523D03*
%TD*%
D10*
%TO.C,TP1*%
X38998776Y-21599694D03*
%TD*%
%TO.C,TP3*%
X11398776Y-23999694D03*
%TD*%
D20*
%TO.C,R5*%
X8488776Y-42299694D03*
X9508776Y-42299694D03*
%TD*%
D10*
%TO.C,TP3*%
X21598776Y-38999694D03*
%TD*%
D17*
%TO.C,R2*%
X25971605Y-11693770D03*
X26692853Y-10972522D03*
%TD*%
D18*
%TO.C,R4*%
X11692852Y-37026866D03*
X10971604Y-36305618D03*
%TD*%
D17*
%TO.C,R6*%
X10971604Y-41693771D03*
X11692852Y-40972523D03*
%TD*%
D10*
%TO.C,TP4*%
X8998776Y-11399694D03*
%TD*%
D19*
%TO.C,R6*%
X22025948Y-21305617D03*
X21304700Y-22026865D03*
%TD*%
D10*
%TO.C,TP4*%
X23998776Y-36599694D03*
%TD*%
%TO.C,TP3*%
X21598776Y-23999694D03*
%TD*%
%TO.C,TP2*%
X6598776Y-23999694D03*
%TD*%
%TO.C,TP2*%
X6598776Y-38999694D03*
%TD*%
D15*
%TO.C,C1*%
X6304699Y-40972523D03*
X7025947Y-41693771D03*
%TD*%
D19*
%TO.C,R2*%
X37025947Y-6305618D03*
X36304699Y-7026866D03*
%TD*%
D24*
%TO.C,R3*%
X5698776Y-38489694D03*
X5698776Y-39509694D03*
%TD*%
D10*
%TO.C,TP3*%
X21598776Y-8999694D03*
%TD*%
D20*
%TO.C,R5*%
X8488776Y-12299694D03*
X9508776Y-12299694D03*
%TD*%
D10*
%TO.C,TP4*%
X38998776Y-41399694D03*
%TD*%
D24*
%TO.C,R3*%
X5698776Y-8489694D03*
X5698776Y-9509694D03*
%TD*%
D15*
%TO.C,C1*%
X36304699Y-25972523D03*
X37025947Y-26693771D03*
%TD*%
D16*
%TO.C,R1*%
X9508776Y-35699694D03*
X8488776Y-35699694D03*
%TD*%
D24*
%TO.C,R3*%
X35698776Y-8489694D03*
X35698776Y-9509694D03*
%TD*%
D18*
%TO.C,R4*%
X41692852Y-22026866D03*
X40971604Y-21305618D03*
%TD*%
D24*
%TO.C,R7*%
X20698776Y-38489694D03*
X20698776Y-39509694D03*
%TD*%
D10*
%TO.C,TP3*%
X41398776Y-23999694D03*
%TD*%
D17*
%TO.C,R6*%
X40971604Y-26693771D03*
X41692852Y-25972523D03*
%TD*%
D19*
%TO.C,R2*%
X7025947Y-36305618D03*
X6304699Y-37026866D03*
%TD*%
D11*
%TO.C,U1*%
X25438776Y-8199694D03*
X25448776Y-8599694D03*
X25448776Y-8999694D03*
X25448776Y-9399694D03*
X25448776Y-9799694D03*
D12*
X24798776Y-10449694D03*
X24398776Y-10449694D03*
X23998776Y-10449694D03*
X23598776Y-10449694D03*
X23198776Y-10459693D03*
D11*
X22548776Y-9799694D03*
X22548776Y-9399694D03*
X22548776Y-8999694D03*
X22548776Y-8599694D03*
X22538777Y-8199694D03*
D12*
X23198776Y-7559694D03*
X23598776Y-7549694D03*
X23998776Y-7549694D03*
X24398776Y-7549694D03*
X24798776Y-7549694D03*
D13*
X23998776Y-8999694D03*
%TD*%
D10*
%TO.C,TP4*%
X38998776Y-11399694D03*
%TD*%
D16*
%TO.C,R1*%
X39508776Y-20699694D03*
X38488776Y-20699694D03*
%TD*%
D14*
%TO.C,R3*%
X27298776Y-39509694D03*
X27298776Y-38489694D03*
%TD*%
D10*
%TO.C,TP3*%
X41398776Y-8999694D03*
%TD*%
D16*
%TO.C,R1*%
X9508776Y-5699694D03*
X8488776Y-5699694D03*
%TD*%
D18*
%TO.C,R4*%
X11692852Y-22026866D03*
X10971604Y-21305618D03*
%TD*%
D10*
%TO.C,TP2*%
X36598776Y-38999694D03*
%TD*%
D15*
%TO.C,R4*%
X21304700Y-25972522D03*
X22025948Y-26693770D03*
%TD*%
D24*
%TO.C,R3*%
X35698776Y-23489694D03*
X35698776Y-24509694D03*
%TD*%
D10*
%TO.C,TP4*%
X8998776Y-26399694D03*
%TD*%
D20*
%TO.C,R1*%
X23488776Y-12299694D03*
X24508776Y-12299694D03*
%TD*%
D17*
%TO.C,R2*%
X25971605Y-26693770D03*
X26692853Y-25972522D03*
%TD*%
D15*
%TO.C,R4*%
X21304700Y-40972522D03*
X22025948Y-41693770D03*
%TD*%
%TO.C,C1*%
X36304699Y-40972523D03*
X37025947Y-41693771D03*
%TD*%
D24*
%TO.C,R7*%
X20698776Y-8489694D03*
X20698776Y-9509694D03*
%TD*%
%TO.C,R7*%
X20698776Y-23489694D03*
X20698776Y-24509694D03*
%TD*%
D10*
%TO.C,TP1*%
X8998776Y-6599694D03*
%TD*%
D19*
%TO.C,R2*%
X37025947Y-36305618D03*
X36304699Y-37026866D03*
%TD*%
%TO.C,R2*%
X37025947Y-21305618D03*
X36304699Y-22026866D03*
%TD*%
D21*
%TO.C,U1*%
X37558776Y-9799694D03*
X37548776Y-9399694D03*
X37548776Y-8999694D03*
X37548776Y-8599694D03*
X37548776Y-8199694D03*
D22*
X38198776Y-7549694D03*
X38598776Y-7549694D03*
X38998776Y-7549694D03*
X39398776Y-7549694D03*
X39798776Y-7539695D03*
D21*
X40448776Y-8199694D03*
X40448776Y-8599694D03*
X40448776Y-8999694D03*
X40448776Y-9399694D03*
X40458775Y-9799694D03*
D22*
X39798776Y-10439694D03*
X39398776Y-10449694D03*
X38998776Y-10449694D03*
X38598776Y-10449694D03*
X38198776Y-10449694D03*
D23*
X38998776Y-8999694D03*
%TD*%
D10*
%TO.C,TP2*%
X26398776Y-8999694D03*
%TD*%
%TO.C,TP4*%
X23998776Y-21599694D03*
%TD*%
D14*
%TO.C,R7*%
X42298776Y-39509694D03*
X42298776Y-38489694D03*
%TD*%
D16*
%TO.C,R5*%
X24508776Y-5699694D03*
X23488776Y-5699694D03*
%TD*%
D20*
%TO.C,R5*%
X38488776Y-42299694D03*
X39508776Y-42299694D03*
%TD*%
D11*
%TO.C,U1*%
X25438776Y-23199694D03*
X25448776Y-23599694D03*
X25448776Y-23999694D03*
X25448776Y-24399694D03*
X25448776Y-24799694D03*
D12*
X24798776Y-25449694D03*
X24398776Y-25449694D03*
X23998776Y-25449694D03*
X23598776Y-25449694D03*
X23198776Y-25459693D03*
D11*
X22548776Y-24799694D03*
X22548776Y-24399694D03*
X22548776Y-23999694D03*
X22548776Y-23599694D03*
X22538777Y-23199694D03*
D12*
X23198776Y-22559694D03*
X23598776Y-22549694D03*
X23998776Y-22549694D03*
X24398776Y-22549694D03*
X24798776Y-22549694D03*
D13*
X23998776Y-23999694D03*
%TD*%
D17*
%TO.C,R2*%
X25971605Y-41693770D03*
X26692853Y-40972522D03*
%TD*%
D10*
%TO.C,TP2*%
X26398776Y-38999694D03*
%TD*%
D20*
%TO.C,R1*%
X23488776Y-27299694D03*
X24508776Y-27299694D03*
%TD*%
D19*
%TO.C,R2*%
X7025947Y-21305618D03*
X6304699Y-22026866D03*
%TD*%
D10*
%TO.C,TP1*%
X38998776Y-36599694D03*
%TD*%
D20*
%TO.C,R5*%
X38488776Y-12299694D03*
X39508776Y-12299694D03*
%TD*%
D21*
%TO.C,U1*%
X7558776Y-39799694D03*
X7548776Y-39399694D03*
X7548776Y-38999694D03*
X7548776Y-38599694D03*
X7548776Y-38199694D03*
D22*
X8198776Y-37549694D03*
X8598776Y-37549694D03*
X8998776Y-37549694D03*
X9398776Y-37549694D03*
X9798776Y-37539695D03*
D21*
X10448776Y-38199694D03*
X10448776Y-38599694D03*
X10448776Y-38999694D03*
X10448776Y-39399694D03*
X10458775Y-39799694D03*
D22*
X9798776Y-40439694D03*
X9398776Y-40449694D03*
X8998776Y-40449694D03*
X8598776Y-40449694D03*
X8198776Y-40449694D03*
D23*
X8998776Y-38999694D03*
%TD*%
D16*
%TO.C,R1*%
X9508776Y-20699694D03*
X8488776Y-20699694D03*
%TD*%
D10*
%TO.C,TP1*%
X23998776Y-11399694D03*
%TD*%
D17*
%TO.C,R6*%
X40971604Y-11693771D03*
X41692852Y-10972523D03*
%TD*%
D24*
%TO.C,R3*%
X5698776Y-23489694D03*
X5698776Y-24509694D03*
%TD*%
D10*
%TO.C,TP1*%
X38998776Y-6599694D03*
%TD*%
D21*
%TO.C,U1*%
X37558776Y-39799694D03*
X37548776Y-39399694D03*
X37548776Y-38999694D03*
X37548776Y-38599694D03*
X37548776Y-38199694D03*
D22*
X38198776Y-37549694D03*
X38598776Y-37549694D03*
X38998776Y-37549694D03*
X39398776Y-37549694D03*
X39798776Y-37539695D03*
D21*
X40448776Y-38199694D03*
X40448776Y-38599694D03*
X40448776Y-38999694D03*
X40448776Y-39399694D03*
X40458775Y-39799694D03*
D22*
X39798776Y-40439694D03*
X39398776Y-40449694D03*
X38998776Y-40449694D03*
X38598776Y-40449694D03*
X38198776Y-40449694D03*
D23*
X38998776Y-38999694D03*
%TD*%
D10*
%TO.C,TP2*%
X6598776Y-8999694D03*
%TD*%
M02*
