%TF.GenerationSoftware,KiCad,Pcbnew,8.0.5-dirty*%
%TF.CreationDate,2025-01-28T00:49:07-05:00*%
%TF.ProjectId,prrpls406-panel,70727270-6c73-4343-9036-2d70616e656c,rev?*%
%TF.SameCoordinates,Original*%
%TF.FileFunction,Paste,Bot*%
%TF.FilePolarity,Positive*%
%FSLAX46Y46*%
G04 Gerber Fmt 4.6, Leading zero omitted, Abs format (unit mm)*
G04 Created by KiCad (PCBNEW 8.0.5-dirty) date 2025-01-28 00:49:07*
%MOMM*%
%LPD*%
G01*
G04 APERTURE LIST*
G04 Aperture macros list*
%AMRoundRect*
0 Rectangle with rounded corners*
0 $1 Rounding radius*
0 $2 $3 $4 $5 $6 $7 $8 $9 X,Y pos of 4 corners*
0 Add a 4 corners polygon primitive as box body*
4,1,4,$2,$3,$4,$5,$6,$7,$8,$9,$2,$3,0*
0 Add four circle primitives for the rounded corners*
1,1,$1+$1,$2,$3*
1,1,$1+$1,$4,$5*
1,1,$1+$1,$6,$7*
1,1,$1+$1,$8,$9*
0 Add four rect primitives between the rounded corners*
20,1,$1+$1,$2,$3,$4,$5,0*
20,1,$1+$1,$4,$5,$6,$7,0*
20,1,$1+$1,$6,$7,$8,$9,0*
20,1,$1+$1,$8,$9,$2,$3,0*%
G04 Aperture macros list end*
%ADD10RoundRect,0.172500X0.172500X0.172500X-0.172500X0.172500X-0.172500X-0.172500X0.172500X-0.172500X0*%
%ADD11RoundRect,0.042500X0.307500X-0.042500X0.307500X0.042500X-0.307500X0.042500X-0.307500X-0.042500X0*%
%ADD12RoundRect,0.042500X0.042500X0.307500X-0.042500X0.307500X-0.042500X-0.307500X0.042500X-0.307500X0*%
%ADD13RoundRect,0.135000X0.185000X-0.135000X0.185000X0.135000X-0.185000X0.135000X-0.185000X-0.135000X0*%
%ADD14RoundRect,0.135000X-0.226274X-0.035355X-0.035355X-0.226274X0.226274X0.035355X0.035355X0.226274X0*%
%ADD15RoundRect,0.135000X0.135000X0.185000X-0.135000X0.185000X-0.135000X-0.185000X0.135000X-0.185000X0*%
%ADD16RoundRect,0.135000X0.035355X-0.226274X0.226274X-0.035355X-0.035355X0.226274X-0.226274X0.035355X0*%
%ADD17RoundRect,0.135000X0.226274X0.035355X0.035355X0.226274X-0.226274X-0.035355X-0.035355X-0.226274X0*%
%ADD18RoundRect,0.135000X-0.035355X0.226274X-0.226274X0.035355X0.035355X-0.226274X0.226274X-0.035355X0*%
%ADD19RoundRect,0.135000X-0.135000X-0.185000X0.135000X-0.185000X0.135000X0.185000X-0.135000X0.185000X0*%
%ADD20RoundRect,0.172500X-0.172500X-0.172500X0.172500X-0.172500X0.172500X0.172500X-0.172500X0.172500X0*%
%ADD21RoundRect,0.042500X-0.307500X0.042500X-0.307500X-0.042500X0.307500X-0.042500X0.307500X0.042500X0*%
%ADD22RoundRect,0.042500X-0.042500X-0.307500X0.042500X-0.307500X0.042500X0.307500X-0.042500X0.307500X0*%
%ADD23RoundRect,0.135000X-0.185000X0.135000X-0.185000X-0.135000X0.185000X-0.135000X0.185000X0.135000X0*%
G04 APERTURE END LIST*
D10*
%TO.C,U1*%
X24423776Y-39424694D03*
X24423776Y-38574694D03*
X23573776Y-39424694D03*
X23573776Y-38574694D03*
D11*
X25438776Y-38199694D03*
X25448776Y-38599694D03*
X25448776Y-38999694D03*
X25448776Y-39399694D03*
X25448776Y-39799694D03*
D12*
X24798776Y-40449694D03*
X24398776Y-40449694D03*
X23998776Y-40449694D03*
X23598776Y-40449694D03*
X23198776Y-40459693D03*
D11*
X22548776Y-39799694D03*
X22548776Y-39399694D03*
X22548776Y-38999694D03*
X22548776Y-38599694D03*
X22538777Y-38199694D03*
D12*
X23198776Y-37559694D03*
X23598776Y-37549694D03*
X23998776Y-37549694D03*
X24398776Y-37549694D03*
X24798776Y-37549694D03*
%TD*%
D13*
%TO.C,R7*%
X12298776Y-9509694D03*
X12298776Y-8489694D03*
%TD*%
D14*
%TO.C,C1*%
X36304699Y-10972523D03*
X37025947Y-11693771D03*
%TD*%
D13*
%TO.C,R7*%
X42298776Y-24509694D03*
X42298776Y-23489694D03*
%TD*%
D15*
%TO.C,R1*%
X39508776Y-5699694D03*
X38488776Y-5699694D03*
%TD*%
%TO.C,R1*%
X39508776Y-35699694D03*
X38488776Y-35699694D03*
%TD*%
D16*
%TO.C,R6*%
X10971604Y-26693771D03*
X11692852Y-25972523D03*
%TD*%
D17*
%TO.C,R4*%
X41692852Y-7026866D03*
X40971604Y-6305618D03*
%TD*%
D16*
%TO.C,R6*%
X40971604Y-41693771D03*
X41692852Y-40972523D03*
%TD*%
D17*
%TO.C,R4*%
X11692852Y-7026866D03*
X10971604Y-6305618D03*
%TD*%
D18*
%TO.C,R6*%
X22025948Y-36305617D03*
X21304700Y-37026865D03*
%TD*%
D19*
%TO.C,R5*%
X8488776Y-27299694D03*
X9508776Y-27299694D03*
%TD*%
D14*
%TO.C,R4*%
X21304700Y-10972522D03*
X22025948Y-11693770D03*
%TD*%
D19*
%TO.C,R5*%
X38488776Y-27299694D03*
X39508776Y-27299694D03*
%TD*%
D17*
%TO.C,C1*%
X26692853Y-37026865D03*
X25971605Y-36305617D03*
%TD*%
D13*
%TO.C,R7*%
X12298776Y-24509694D03*
X12298776Y-23489694D03*
%TD*%
D15*
%TO.C,R5*%
X24508776Y-35699694D03*
X23488776Y-35699694D03*
%TD*%
D14*
%TO.C,C1*%
X6304699Y-10972523D03*
X7025947Y-11693771D03*
%TD*%
D17*
%TO.C,C1*%
X26692853Y-22026865D03*
X25971605Y-21305617D03*
%TD*%
D13*
%TO.C,R3*%
X27298776Y-9509694D03*
X27298776Y-8489694D03*
%TD*%
D20*
%TO.C,U1*%
X8573776Y-23574694D03*
X8573776Y-24424694D03*
X9423776Y-23574694D03*
X9423776Y-24424694D03*
D21*
X7558776Y-24799694D03*
X7548776Y-24399694D03*
X7548776Y-23999694D03*
X7548776Y-23599694D03*
X7548776Y-23199694D03*
D22*
X8198776Y-22549694D03*
X8598776Y-22549694D03*
X8998776Y-22549694D03*
X9398776Y-22549694D03*
X9798776Y-22539695D03*
D21*
X10448776Y-23199694D03*
X10448776Y-23599694D03*
X10448776Y-23999694D03*
X10448776Y-24399694D03*
X10458775Y-24799694D03*
D22*
X9798776Y-25439694D03*
X9398776Y-25449694D03*
X8998776Y-25449694D03*
X8598776Y-25449694D03*
X8198776Y-25449694D03*
%TD*%
D17*
%TO.C,R4*%
X41692852Y-37026866D03*
X40971604Y-36305618D03*
%TD*%
D15*
%TO.C,R5*%
X24508776Y-20699694D03*
X23488776Y-20699694D03*
%TD*%
D18*
%TO.C,R6*%
X22025948Y-6305617D03*
X21304700Y-7026865D03*
%TD*%
D19*
%TO.C,R1*%
X23488776Y-42299694D03*
X24508776Y-42299694D03*
%TD*%
D13*
%TO.C,R7*%
X42298776Y-9509694D03*
X42298776Y-8489694D03*
%TD*%
D23*
%TO.C,R3*%
X35698776Y-38489694D03*
X35698776Y-39509694D03*
%TD*%
D18*
%TO.C,R2*%
X7025947Y-6305618D03*
X6304699Y-7026866D03*
%TD*%
D14*
%TO.C,C1*%
X6304699Y-25972523D03*
X7025947Y-26693771D03*
%TD*%
D20*
%TO.C,U1*%
X38573776Y-23574694D03*
X38573776Y-24424694D03*
X39423776Y-23574694D03*
X39423776Y-24424694D03*
D21*
X37558776Y-24799694D03*
X37548776Y-24399694D03*
X37548776Y-23999694D03*
X37548776Y-23599694D03*
X37548776Y-23199694D03*
D22*
X38198776Y-22549694D03*
X38598776Y-22549694D03*
X38998776Y-22549694D03*
X39398776Y-22549694D03*
X39798776Y-22539695D03*
D21*
X40448776Y-23199694D03*
X40448776Y-23599694D03*
X40448776Y-23999694D03*
X40448776Y-24399694D03*
X40458775Y-24799694D03*
D22*
X39798776Y-25439694D03*
X39398776Y-25449694D03*
X38998776Y-25449694D03*
X38598776Y-25449694D03*
X38198776Y-25449694D03*
%TD*%
D20*
%TO.C,U1*%
X8573776Y-8574694D03*
X8573776Y-9424694D03*
X9423776Y-8574694D03*
X9423776Y-9424694D03*
D21*
X7558776Y-9799694D03*
X7548776Y-9399694D03*
X7548776Y-8999694D03*
X7548776Y-8599694D03*
X7548776Y-8199694D03*
D22*
X8198776Y-7549694D03*
X8598776Y-7549694D03*
X8998776Y-7549694D03*
X9398776Y-7549694D03*
X9798776Y-7539695D03*
D21*
X10448776Y-8199694D03*
X10448776Y-8599694D03*
X10448776Y-8999694D03*
X10448776Y-9399694D03*
X10458775Y-9799694D03*
D22*
X9798776Y-10439694D03*
X9398776Y-10449694D03*
X8998776Y-10449694D03*
X8598776Y-10449694D03*
X8198776Y-10449694D03*
%TD*%
D13*
%TO.C,R3*%
X27298776Y-24509694D03*
X27298776Y-23489694D03*
%TD*%
D17*
%TO.C,C1*%
X26692853Y-7026865D03*
X25971605Y-6305617D03*
%TD*%
D13*
%TO.C,R7*%
X12298776Y-39509694D03*
X12298776Y-38489694D03*
%TD*%
D16*
%TO.C,R6*%
X10971604Y-11693771D03*
X11692852Y-10972523D03*
%TD*%
D19*
%TO.C,R5*%
X8488776Y-42299694D03*
X9508776Y-42299694D03*
%TD*%
D16*
%TO.C,R2*%
X25971605Y-11693770D03*
X26692853Y-10972522D03*
%TD*%
D17*
%TO.C,R4*%
X11692852Y-37026866D03*
X10971604Y-36305618D03*
%TD*%
D16*
%TO.C,R6*%
X10971604Y-41693771D03*
X11692852Y-40972523D03*
%TD*%
D18*
%TO.C,R6*%
X22025948Y-21305617D03*
X21304700Y-22026865D03*
%TD*%
D14*
%TO.C,C1*%
X6304699Y-40972523D03*
X7025947Y-41693771D03*
%TD*%
D18*
%TO.C,R2*%
X37025947Y-6305618D03*
X36304699Y-7026866D03*
%TD*%
D23*
%TO.C,R3*%
X5698776Y-38489694D03*
X5698776Y-39509694D03*
%TD*%
D19*
%TO.C,R5*%
X8488776Y-12299694D03*
X9508776Y-12299694D03*
%TD*%
D23*
%TO.C,R3*%
X5698776Y-8489694D03*
X5698776Y-9509694D03*
%TD*%
D14*
%TO.C,C1*%
X36304699Y-25972523D03*
X37025947Y-26693771D03*
%TD*%
D15*
%TO.C,R1*%
X9508776Y-35699694D03*
X8488776Y-35699694D03*
%TD*%
D23*
%TO.C,R3*%
X35698776Y-8489694D03*
X35698776Y-9509694D03*
%TD*%
D17*
%TO.C,R4*%
X41692852Y-22026866D03*
X40971604Y-21305618D03*
%TD*%
D23*
%TO.C,R7*%
X20698776Y-38489694D03*
X20698776Y-39509694D03*
%TD*%
D16*
%TO.C,R6*%
X40971604Y-26693771D03*
X41692852Y-25972523D03*
%TD*%
D18*
%TO.C,R2*%
X7025947Y-36305618D03*
X6304699Y-37026866D03*
%TD*%
D10*
%TO.C,U1*%
X24423776Y-9424694D03*
X24423776Y-8574694D03*
X23573776Y-9424694D03*
X23573776Y-8574694D03*
D11*
X25438776Y-8199694D03*
X25448776Y-8599694D03*
X25448776Y-8999694D03*
X25448776Y-9399694D03*
X25448776Y-9799694D03*
D12*
X24798776Y-10449694D03*
X24398776Y-10449694D03*
X23998776Y-10449694D03*
X23598776Y-10449694D03*
X23198776Y-10459693D03*
D11*
X22548776Y-9799694D03*
X22548776Y-9399694D03*
X22548776Y-8999694D03*
X22548776Y-8599694D03*
X22538777Y-8199694D03*
D12*
X23198776Y-7559694D03*
X23598776Y-7549694D03*
X23998776Y-7549694D03*
X24398776Y-7549694D03*
X24798776Y-7549694D03*
%TD*%
D15*
%TO.C,R1*%
X39508776Y-20699694D03*
X38488776Y-20699694D03*
%TD*%
D13*
%TO.C,R3*%
X27298776Y-39509694D03*
X27298776Y-38489694D03*
%TD*%
D15*
%TO.C,R1*%
X9508776Y-5699694D03*
X8488776Y-5699694D03*
%TD*%
D17*
%TO.C,R4*%
X11692852Y-22026866D03*
X10971604Y-21305618D03*
%TD*%
D14*
%TO.C,R4*%
X21304700Y-25972522D03*
X22025948Y-26693770D03*
%TD*%
D23*
%TO.C,R3*%
X35698776Y-23489694D03*
X35698776Y-24509694D03*
%TD*%
D19*
%TO.C,R1*%
X23488776Y-12299694D03*
X24508776Y-12299694D03*
%TD*%
D16*
%TO.C,R2*%
X25971605Y-26693770D03*
X26692853Y-25972522D03*
%TD*%
D14*
%TO.C,R4*%
X21304700Y-40972522D03*
X22025948Y-41693770D03*
%TD*%
%TO.C,C1*%
X36304699Y-40972523D03*
X37025947Y-41693771D03*
%TD*%
D23*
%TO.C,R7*%
X20698776Y-8489694D03*
X20698776Y-9509694D03*
%TD*%
%TO.C,R7*%
X20698776Y-23489694D03*
X20698776Y-24509694D03*
%TD*%
D18*
%TO.C,R2*%
X37025947Y-36305618D03*
X36304699Y-37026866D03*
%TD*%
%TO.C,R2*%
X37025947Y-21305618D03*
X36304699Y-22026866D03*
%TD*%
D20*
%TO.C,U1*%
X38573776Y-8574694D03*
X38573776Y-9424694D03*
X39423776Y-8574694D03*
X39423776Y-9424694D03*
D21*
X37558776Y-9799694D03*
X37548776Y-9399694D03*
X37548776Y-8999694D03*
X37548776Y-8599694D03*
X37548776Y-8199694D03*
D22*
X38198776Y-7549694D03*
X38598776Y-7549694D03*
X38998776Y-7549694D03*
X39398776Y-7549694D03*
X39798776Y-7539695D03*
D21*
X40448776Y-8199694D03*
X40448776Y-8599694D03*
X40448776Y-8999694D03*
X40448776Y-9399694D03*
X40458775Y-9799694D03*
D22*
X39798776Y-10439694D03*
X39398776Y-10449694D03*
X38998776Y-10449694D03*
X38598776Y-10449694D03*
X38198776Y-10449694D03*
%TD*%
D13*
%TO.C,R7*%
X42298776Y-39509694D03*
X42298776Y-38489694D03*
%TD*%
D15*
%TO.C,R5*%
X24508776Y-5699694D03*
X23488776Y-5699694D03*
%TD*%
D19*
%TO.C,R5*%
X38488776Y-42299694D03*
X39508776Y-42299694D03*
%TD*%
D10*
%TO.C,U1*%
X24423776Y-24424694D03*
X24423776Y-23574694D03*
X23573776Y-24424694D03*
X23573776Y-23574694D03*
D11*
X25438776Y-23199694D03*
X25448776Y-23599694D03*
X25448776Y-23999694D03*
X25448776Y-24399694D03*
X25448776Y-24799694D03*
D12*
X24798776Y-25449694D03*
X24398776Y-25449694D03*
X23998776Y-25449694D03*
X23598776Y-25449694D03*
X23198776Y-25459693D03*
D11*
X22548776Y-24799694D03*
X22548776Y-24399694D03*
X22548776Y-23999694D03*
X22548776Y-23599694D03*
X22538777Y-23199694D03*
D12*
X23198776Y-22559694D03*
X23598776Y-22549694D03*
X23998776Y-22549694D03*
X24398776Y-22549694D03*
X24798776Y-22549694D03*
%TD*%
D16*
%TO.C,R2*%
X25971605Y-41693770D03*
X26692853Y-40972522D03*
%TD*%
D19*
%TO.C,R1*%
X23488776Y-27299694D03*
X24508776Y-27299694D03*
%TD*%
D18*
%TO.C,R2*%
X7025947Y-21305618D03*
X6304699Y-22026866D03*
%TD*%
D19*
%TO.C,R5*%
X38488776Y-12299694D03*
X39508776Y-12299694D03*
%TD*%
D20*
%TO.C,U1*%
X8573776Y-38574694D03*
X8573776Y-39424694D03*
X9423776Y-38574694D03*
X9423776Y-39424694D03*
D21*
X7558776Y-39799694D03*
X7548776Y-39399694D03*
X7548776Y-38999694D03*
X7548776Y-38599694D03*
X7548776Y-38199694D03*
D22*
X8198776Y-37549694D03*
X8598776Y-37549694D03*
X8998776Y-37549694D03*
X9398776Y-37549694D03*
X9798776Y-37539695D03*
D21*
X10448776Y-38199694D03*
X10448776Y-38599694D03*
X10448776Y-38999694D03*
X10448776Y-39399694D03*
X10458775Y-39799694D03*
D22*
X9798776Y-40439694D03*
X9398776Y-40449694D03*
X8998776Y-40449694D03*
X8598776Y-40449694D03*
X8198776Y-40449694D03*
%TD*%
D15*
%TO.C,R1*%
X9508776Y-20699694D03*
X8488776Y-20699694D03*
%TD*%
D16*
%TO.C,R6*%
X40971604Y-11693771D03*
X41692852Y-10972523D03*
%TD*%
D23*
%TO.C,R3*%
X5698776Y-23489694D03*
X5698776Y-24509694D03*
%TD*%
D20*
%TO.C,U1*%
X38573776Y-38574694D03*
X38573776Y-39424694D03*
X39423776Y-38574694D03*
X39423776Y-39424694D03*
D21*
X37558776Y-39799694D03*
X37548776Y-39399694D03*
X37548776Y-38999694D03*
X37548776Y-38599694D03*
X37548776Y-38199694D03*
D22*
X38198776Y-37549694D03*
X38598776Y-37549694D03*
X38998776Y-37549694D03*
X39398776Y-37549694D03*
X39798776Y-37539695D03*
D21*
X40448776Y-38199694D03*
X40448776Y-38599694D03*
X40448776Y-38999694D03*
X40448776Y-39399694D03*
X40458775Y-39799694D03*
D22*
X39798776Y-40439694D03*
X39398776Y-40449694D03*
X38998776Y-40449694D03*
X38598776Y-40449694D03*
X38198776Y-40449694D03*
%TD*%
M02*
